<svg xmlns="http://www.w3.org/2000/svg" width="48" height="48" viewBox="0 0 48 48" fill="#">
  <path d="M23.621 33.0694L33.0694 23.621L23.621 14.1726L20.314 17.4795L24.0934 21.2589H14.1726V25.9831H24.0934L20.314 29.7624L23.621 33.0694ZM23.621 47.2419C20.3534 47.2419 17.2827 46.6215 14.4088 45.3806C11.5349 44.1397 9.03502 42.4571 6.90913 40.3328C4.78325 38.2069 3.10065 35.707 1.86133 32.8331C0.622019 29.9593 0.00157473 26.8885 0 23.621C0 20.3534 0.620444 17.2827 1.86133 14.4088C3.10222 11.5349 4.78482 9.03502 6.90913 6.90913C9.03502 4.78325 11.5349 3.10065 14.4088 1.86133C17.2827 0.622019 20.3534 0.00157473 23.621 0C26.8885 0 29.9593 0.620444 32.8331 1.86133C35.707 3.10222 38.2069 4.78482 40.3328 6.90913C42.4587 9.03502 44.1421 11.5349 45.383 14.4088C46.6238 17.2827 47.2435 20.3534 47.2419 23.621C47.2419 26.8885 46.6215 29.9593 45.3806 32.8331C44.1397 35.707 42.4571 38.2069 40.3328 40.3328C38.2069 42.4587 35.707 44.1421 32.8331 45.383C29.9593 46.6238 26.8885 47.2435 23.621 47.2419ZM23.621 42.5177C28.8963 42.5177 33.3646 40.6871 37.0259 37.0259C40.6871 33.3646 42.5177 28.8963 42.5177 23.621C42.5177 18.3456 40.6871 13.8773 37.0259 10.2161C33.3646 6.55482 28.8963 4.72419 23.621 4.72419C18.3456 4.72419 13.8773 6.55482 10.2161 10.2161C6.55482 13.8773 4.72419 18.3456 4.72419 23.621C4.72419 28.8963 6.55482 33.3646 10.2161 37.0259C13.8773 40.6871 18.3456 42.5177 23.621 42.5177Z" fill="#ffffff"/>
</svg>