<svg xmlns="http://www.w3.org/2000/svg" width="48" height="48" viewBox="0 0 48 48" fill="none">
  <path d="M23.6212 33.0694L14.1728 23.621L23.6212 14.1726L26.9282 17.4795L23.1488 21.2589H33.0696V25.9831H23.1488L26.9282 29.7624L23.6212 33.0694ZM23.6212 47.2419C26.8888 47.2419 29.9595 46.6215 32.8334 45.3806C35.7073 44.1397 38.2072 42.4571 40.3331 40.3328C42.4589 38.2069 44.1415 35.707 45.3809 32.8331C46.6202 29.9593 47.2406 26.8885 47.2422 23.621C47.2422 20.3534 46.6217 17.2827 45.3809 14.4088C44.14 11.5349 42.4574 9.03502 40.3331 6.90913C38.2072 4.78325 35.7073 3.10065 32.8334 1.86133C29.9595 0.622019 26.8888 0.00157473 23.6212 0C20.3537 0 17.2829 0.620444 14.409 1.86133C11.5352 3.10222 9.03527 4.78482 6.90939 6.90913C4.7835 9.03502 3.10012 11.5349 1.85923 14.4088C0.61834 17.2827 -0.00131989 20.3534 0.000255585 23.621C0.000255585 26.8885 0.620701 29.9593 1.86159 32.8331C3.10248 35.707 4.78508 38.2069 6.90939 40.3328C9.03527 42.4587 11.5352 44.1421 14.409 45.383C17.2829 46.6238 20.3537 47.2435 23.6212 47.2419ZM23.6212 42.5177C18.3459 42.5177 13.8776 40.6871 10.2163 37.0259C6.55508 33.3646 4.72445 28.8963 4.72445 23.621C4.72445 18.3456 6.55508 13.8773 10.2163 10.2161C13.8776 6.55482 18.3459 4.72419 23.6212 4.72419C28.8966 4.72419 33.3649 6.55482 37.0261 10.2161C40.6874 13.8773 42.518 18.3456 42.518 23.621C42.518 28.8963 40.6874 33.3646 37.0261 37.0259C33.3649 40.6871 28.8966 42.5177 23.6212 42.5177Z" fill="url(#paint0_linear_1672_289)"/>
  <defs>
    <linearGradient id="paint0_linear_1672_289" x1="47.2422" y1="23.62" x2="0.000645984" y2="23.62" gradientUnits="userSpaceOnUse">
      <stop offset="0.02" stop-color="#920AA8"/>
      <stop offset="0.2" stop-color="#E019CC"/>
      <stop offset="0.48" stop-color="#FF81E3"/>
      <stop offset="0.52" stop-color="#FC75D6"/>
      <stop offset="0.6" stop-color="#DF55F6"/>
      <stop offset="0.71" stop-color="#E822EC"/>
      <stop offset="0.75" stop-color="#E80F91"/>
      <stop offset="0.8125" stop-color="#EE19D8"/>
      <stop offset="1" stop-color="#FE3873"/>
    </linearGradient>
  </defs>
</svg>