<svg width="109" height="184" viewBox="0 0 109 184" fill="none" xmlns="http://www.w3.org/2000/svg">
<g id="Group 202">
<path id="Rectangle 104" d="M0 68.1359C0 49.5819 10.2741 32.5535 26.688 23.9029L30.7198 21.7781C45.31 14.0887 62.7535 14.0887 77.3437 21.7781L81.3755 23.9029C97.7894 32.5535 108.063 49.5819 108.063 68.1359V135.207C108.063 155.492 85.0348 167.195 68.649 155.238C59.9403 148.883 48.1232 148.883 39.4145 155.238C23.0287 167.195 0 155.492 0 135.207V68.1359Z" fill="url(#paint0_linear_22_906)"/>
<path id="Rectangle 103" d="M0 58.6438C0 40.0898 10.2741 23.0615 26.688 14.4109L30.7198 12.286C45.31 4.5966 62.7535 4.59661 77.3437 12.286L81.3755 14.4109C97.7894 23.0615 108.063 40.0898 108.063 58.6438V125.715C108.063 146 85.0348 157.703 68.649 145.746C59.9403 139.391 48.1232 139.391 39.4145 145.746C23.0287 157.703 0 146 0 125.715V58.6438Z" fill="#FAFAFA"/>
<path id="Vector" d="M24.0217 98.5843L24.0211 76.2086C24.0211 74.9655 24.3097 73.789 24.8868 72.6791C25.4639 71.5692 26.2852 70.6591 27.3507 69.9488L31.5461 67.2185C31.9902 72.4573 32.6784 76.9191 33.6108 80.6041C34.5432 84.289 36.0084 88.4178 38.0063 92.9907L24.0217 98.5843ZM43.7334 90.993C41.5579 86.7753 39.9258 82.3694 38.8371 77.7753C37.7501 73.1793 37.2066 68.3952 37.2065 63.4228C37.2063 55.6091 38.7485 48.2278 41.8329 41.279C44.9192 34.3319 49.0151 29.0604 54.1205 25.4645C59.2262 29.0607 63.333 34.3217 66.4409 41.2476C69.5488 48.1735 71.1028 55.5433 71.103 63.357C71.1031 68.2406 70.5598 73.0247 69.4731 77.7094C68.3846 82.3923 66.7527 86.8425 64.5774 91.0601L43.7334 90.993ZM54.1215 64.6219C56.1637 64.622 57.9289 63.8779 59.417 62.3898C60.9034 60.9035 61.6465 59.1392 61.6465 57.0969C61.6464 55.0547 60.9023 53.2895 59.4141 51.8013C57.9277 50.3149 56.1633 49.5717 54.1211 49.5716C52.0789 49.5716 50.3146 50.3147 48.8283 51.8011C47.3401 53.2892 46.5961 55.0544 46.5961 57.0966C46.5962 59.1388 47.3394 60.9031 48.8259 62.3895C50.314 63.8777 52.0793 64.6219 54.1215 64.6219ZM84.2895 98.5191L70.238 92.9915C72.2357 88.4187 73.7122 84.2784 74.6675 80.5704C75.6211 76.8642 76.3198 72.3918 76.7636 67.153L80.8925 69.9501C81.9581 70.6605 82.791 71.5822 83.3912 72.7152C83.9897 73.8464 84.289 75.0336 84.289 76.2766L84.2895 98.5191ZM42.8681 108.907C42.868 105.799 43.9663 103.124 46.163 100.881C48.3615 98.6399 51.0145 97.5194 54.1223 97.5195C57.23 97.5196 59.8938 98.6295 62.1137 100.849C64.3335 103.069 65.4435 105.733 65.4436 108.841C65.4436 111.061 64.5451 113.868 62.7481 117.264C60.9492 120.661 58.0742 124.956 54.1231 130.151C50.1717 124.956 47.308 120.672 45.5321 117.298C43.7562 113.924 42.8682 111.127 42.8681 108.907Z" fill="url(#paint1_linear_22_906)"/>
</g>
<defs>
<linearGradient id="paint0_linear_22_906" x1="0" y1="9.49207" x2="148.824" y2="47.9322" gradientUnits="userSpaceOnUse">
<stop stop-color="#FEB838"/>
<stop offset="1" stop-color="#F853B6" stop-opacity="0.53"/>
</linearGradient>
<linearGradient id="paint1_linear_22_906" x1="27.7906" y1="103.818" x2="80.4528" y2="51.1561" gradientUnits="userSpaceOnUse">
<stop offset="0.02" stop-color="#920AA8"/>
<stop offset="0.2" stop-color="#E019CC"/>
<stop offset="0.48" stop-color="#FF81E3"/>
<stop offset="0.52" stop-color="#FC75D6"/>
<stop offset="0.6" stop-color="#DF55F6"/>
<stop offset="0.71" stop-color="#E822EC"/>
<stop offset="0.75" stop-color="#E80F91"/>
<stop offset="0.8125" stop-color="#EE19D8"/>
<stop offset="1" stop-color="#FE3873"/>
</linearGradient>
</defs>
</svg>
